<mxfile host="Electron" modified="2024-04-30T13:22:34.905Z" agent="Mozilla/5.0 (Windows NT 10.0; Win64; x64) AppleWebKit/537.36 (KHTML, like Gecko) draw.io/24.2.5 Chrome/120.0.6099.109 Electron/28.1.0 Safari/537.36" etag="Kf7ay9cjXSgFrpvfG7Mu" version="24.2.5" type="device">
  <diagram id="C5RBs43oDa-KdzZeNtuy" name="Page-1">
    <mxGraphModel dx="3020" dy="1973" grid="1" gridSize="10" guides="1" tooltips="1" connect="1" arrows="1" fold="1" page="1" pageScale="1" pageWidth="827" pageHeight="1169" math="0" shadow="0">
      <root>
        <mxCell id="WIyWlLk6GJQsqaUBKTNV-0" />
        <mxCell id="WIyWlLk6GJQsqaUBKTNV-1" parent="WIyWlLk6GJQsqaUBKTNV-0" />
        <mxCell id="gxxZRGfVhdAJ79STQYsQ-71" style="edgeStyle=orthogonalEdgeStyle;rounded=0;orthogonalLoop=1;jettySize=auto;html=1;entryX=0.5;entryY=0;entryDx=0;entryDy=0;exitX=0;exitY=0.5;exitDx=0;exitDy=0;" parent="WIyWlLk6GJQsqaUBKTNV-1" source="8ujiRsxlkH-QBAE6qNTh-2" target="gxxZRGfVhdAJ79STQYsQ-70" edge="1">
          <mxGeometry relative="1" as="geometry" />
        </mxCell>
        <mxCell id="fSKlPOmd9Wkej2sqSRBE-9" style="edgeStyle=orthogonalEdgeStyle;rounded=0;orthogonalLoop=1;jettySize=auto;html=1;exitX=0.25;exitY=1;exitDx=0;exitDy=0;" parent="WIyWlLk6GJQsqaUBKTNV-1" source="8ujiRsxlkH-QBAE6qNTh-2" target="gxxZRGfVhdAJ79STQYsQ-67" edge="1">
          <mxGeometry relative="1" as="geometry" />
        </mxCell>
        <mxCell id="fSKlPOmd9Wkej2sqSRBE-10" style="edgeStyle=orthogonalEdgeStyle;rounded=0;orthogonalLoop=1;jettySize=auto;html=1;exitX=0.75;exitY=1;exitDx=0;exitDy=0;" parent="WIyWlLk6GJQsqaUBKTNV-1" source="8ujiRsxlkH-QBAE6qNTh-2" target="gxxZRGfVhdAJ79STQYsQ-66" edge="1">
          <mxGeometry relative="1" as="geometry" />
        </mxCell>
        <mxCell id="8ujiRsxlkH-QBAE6qNTh-2" value="Asn1DecodedDataRouter.java" style="rounded=0;whiteSpace=wrap;html=1;fillColor=#dae8fc;strokeColor=#6c8ebf;" parent="WIyWlLk6GJQsqaUBKTNV-1" vertex="1">
          <mxGeometry x="-112.5" y="-300" width="170" height="60" as="geometry" />
        </mxCell>
        <mxCell id="gxxZRGfVhdAJ79STQYsQ-20" style="edgeStyle=orthogonalEdgeStyle;rounded=0;orthogonalLoop=1;jettySize=auto;html=1;entryX=0;entryY=0.5;entryDx=0;entryDy=0;" parent="WIyWlLk6GJQsqaUBKTNV-1" source="gxxZRGfVhdAJ79STQYsQ-5" target="gxxZRGfVhdAJ79STQYsQ-19" edge="1">
          <mxGeometry relative="1" as="geometry" />
        </mxCell>
        <mxCell id="gxxZRGfVhdAJ79STQYsQ-5" value="ACM (ADM)" style="shape=process;whiteSpace=wrap;html=1;backgroundOutline=1;fillColor=#d5e8d4;strokeColor=#82b366;" parent="WIyWlLk6GJQsqaUBKTNV-1" vertex="1">
          <mxGeometry x="-180" y="-420" width="120" height="60" as="geometry" />
        </mxCell>
        <mxCell id="_VHhroGQ1N4wH_tI7Nl9-2" style="edgeStyle=orthogonalEdgeStyle;rounded=0;orthogonalLoop=1;jettySize=auto;html=1;" parent="WIyWlLk6GJQsqaUBKTNV-1" source="gxxZRGfVhdAJ79STQYsQ-9" target="gxxZRGfVhdAJ79STQYsQ-62" edge="1">
          <mxGeometry relative="1" as="geometry" />
        </mxCell>
        <mxCell id="gxxZRGfVhdAJ79STQYsQ-9" value="AsnCodecMessageServiceController.java" style="rounded=0;whiteSpace=wrap;html=1;fillColor=#dae8fc;strokeColor=#6c8ebf;" parent="WIyWlLk6GJQsqaUBKTNV-1" vertex="1">
          <mxGeometry x="-485" y="-540" width="230" height="60" as="geometry" />
        </mxCell>
        <mxCell id="gxxZRGfVhdAJ79STQYsQ-18" style="edgeStyle=orthogonalEdgeStyle;rounded=0;orthogonalLoop=1;jettySize=auto;html=1;entryX=0;entryY=0.5;entryDx=0;entryDy=0;" parent="WIyWlLk6GJQsqaUBKTNV-1" source="gxxZRGfVhdAJ79STQYsQ-13" target="gxxZRGfVhdAJ79STQYsQ-5" edge="1">
          <mxGeometry relative="1" as="geometry" />
        </mxCell>
        <mxCell id="gxxZRGfVhdAJ79STQYsQ-13" value="Asn1DecoderInput" style="ellipse;whiteSpace=wrap;html=1;fillColor=#fff2cc;strokeColor=#d6b656;" parent="WIyWlLk6GJQsqaUBKTNV-1" vertex="1">
          <mxGeometry x="-350" y="-430" width="120" height="80" as="geometry" />
        </mxCell>
        <mxCell id="bbxu_yWrm7AVVhjccTj6-0" style="rounded=0;orthogonalLoop=1;jettySize=auto;html=1;" parent="WIyWlLk6GJQsqaUBKTNV-1" source="gxxZRGfVhdAJ79STQYsQ-19" target="8ujiRsxlkH-QBAE6qNTh-2" edge="1">
          <mxGeometry relative="1" as="geometry" />
        </mxCell>
        <mxCell id="gxxZRGfVhdAJ79STQYsQ-19" value="Asn1DecoderOutput" style="ellipse;whiteSpace=wrap;html=1;fillColor=#fff2cc;strokeColor=#d6b656;" parent="WIyWlLk6GJQsqaUBKTNV-1" vertex="1">
          <mxGeometry x="-7.5" y="-430" width="120" height="80" as="geometry" />
        </mxCell>
        <mxCell id="gxxZRGfVhdAJ79STQYsQ-57" style="edgeStyle=orthogonalEdgeStyle;rounded=0;orthogonalLoop=1;jettySize=auto;html=1;entryX=0.5;entryY=0;entryDx=0;entryDy=0;" parent="WIyWlLk6GJQsqaUBKTNV-1" source="gxxZRGfVhdAJ79STQYsQ-58" target="gxxZRGfVhdAJ79STQYsQ-60" edge="1">
          <mxGeometry relative="1" as="geometry" />
        </mxCell>
        <mxCell id="gxxZRGfVhdAJ79STQYsQ-58" value="TimReceiver.java" style="rounded=0;whiteSpace=wrap;html=1;fillColor=#dae8fc;strokeColor=#6c8ebf;" parent="WIyWlLk6GJQsqaUBKTNV-1" vertex="1">
          <mxGeometry x="-430" y="-860" width="120" height="60" as="geometry" />
        </mxCell>
        <mxCell id="_VHhroGQ1N4wH_tI7Nl9-1" style="edgeStyle=orthogonalEdgeStyle;rounded=0;orthogonalLoop=1;jettySize=auto;html=1;" parent="WIyWlLk6GJQsqaUBKTNV-1" source="gxxZRGfVhdAJ79STQYsQ-60" target="gxxZRGfVhdAJ79STQYsQ-9" edge="1">
          <mxGeometry relative="1" as="geometry" />
        </mxCell>
        <mxCell id="gxxZRGfVhdAJ79STQYsQ-60" value="OdeRawEncodedTIMJson" style="ellipse;whiteSpace=wrap;html=1;fillColor=#fff2cc;strokeColor=#d6b656;" parent="WIyWlLk6GJQsqaUBKTNV-1" vertex="1">
          <mxGeometry x="-377.5" y="-680" width="170" height="80" as="geometry" />
        </mxCell>
        <mxCell id="75-af1ib1f6XEc1HYEvR-0" style="edgeStyle=orthogonalEdgeStyle;rounded=0;orthogonalLoop=1;jettySize=auto;html=1;exitX=1;exitY=0.5;exitDx=0;exitDy=0;entryX=0;entryY=0.5;entryDx=0;entryDy=0;" parent="WIyWlLk6GJQsqaUBKTNV-1" source="gxxZRGfVhdAJ79STQYsQ-62" target="gxxZRGfVhdAJ79STQYsQ-13" edge="1">
          <mxGeometry relative="1" as="geometry" />
        </mxCell>
        <mxCell id="gxxZRGfVhdAJ79STQYsQ-62" value="Asn1DecodeTIMJSON.java" style="rounded=0;whiteSpace=wrap;html=1;fillColor=#dae8fc;strokeColor=#6c8ebf;" parent="WIyWlLk6GJQsqaUBKTNV-1" vertex="1">
          <mxGeometry x="-560" y="-420" width="160" height="60" as="geometry" />
        </mxCell>
        <mxCell id="gxxZRGfVhdAJ79STQYsQ-66" value="OdeDNMsgJson" style="ellipse;whiteSpace=wrap;html=1;fillColor=#fff2cc;strokeColor=#d6b656;" parent="WIyWlLk6GJQsqaUBKTNV-1" vertex="1">
          <mxGeometry x="-17.5" y="-93" width="120" height="80" as="geometry" />
        </mxCell>
        <mxCell id="gxxZRGfVhdAJ79STQYsQ-67" value="OdeTimRxJson" style="ellipse;whiteSpace=wrap;html=1;fillColor=#fff2cc;strokeColor=#d6b656;" parent="WIyWlLk6GJQsqaUBKTNV-1" vertex="1">
          <mxGeometry x="-157.5" y="-93" width="120" height="80" as="geometry" />
        </mxCell>
        <mxCell id="jXXAGItoZEFWX7bIlFFn-13" style="edgeStyle=orthogonalEdgeStyle;rounded=0;orthogonalLoop=1;jettySize=auto;html=1;entryX=0;entryY=0.5;entryDx=0;entryDy=0;exitX=1;exitY=0.5;exitDx=0;exitDy=0;" parent="WIyWlLk6GJQsqaUBKTNV-1" source="gxxZRGfVhdAJ79STQYsQ-70" target="gxxZRGfVhdAJ79STQYsQ-85" edge="1">
          <mxGeometry relative="1" as="geometry" />
        </mxCell>
        <mxCell id="gxxZRGfVhdAJ79STQYsQ-70" value="OdeTimJson" style="ellipse;whiteSpace=wrap;html=1;fillColor=#fff2cc;strokeColor=#d6b656;" parent="WIyWlLk6GJQsqaUBKTNV-1" vertex="1">
          <mxGeometry x="-490" y="-173" width="120" height="80" as="geometry" />
        </mxCell>
        <mxCell id="fSKlPOmd9Wkej2sqSRBE-1" style="edgeStyle=orthogonalEdgeStyle;rounded=0;orthogonalLoop=1;jettySize=auto;html=1;" parent="WIyWlLk6GJQsqaUBKTNV-1" source="gxxZRGfVhdAJ79STQYsQ-74" target="gxxZRGfVhdAJ79STQYsQ-98" edge="1">
          <mxGeometry relative="1" as="geometry" />
        </mxCell>
        <mxCell id="fSKlPOmd9Wkej2sqSRBE-7" style="rounded=0;orthogonalLoop=1;jettySize=auto;html=1;" parent="WIyWlLk6GJQsqaUBKTNV-1" source="gxxZRGfVhdAJ79STQYsQ-74" target="gxxZRGfVhdAJ79STQYsQ-70" edge="1">
          <mxGeometry relative="1" as="geometry">
            <Array as="points">
              <mxPoint x="-590" y="-300" />
            </Array>
          </mxGeometry>
        </mxCell>
        <mxCell id="fSKlPOmd9Wkej2sqSRBE-12" style="edgeStyle=orthogonalEdgeStyle;rounded=0;orthogonalLoop=1;jettySize=auto;html=1;exitX=0;exitY=0.75;exitDx=0;exitDy=0;" parent="WIyWlLk6GJQsqaUBKTNV-1" source="gxxZRGfVhdAJ79STQYsQ-74" target="jXXAGItoZEFWX7bIlFFn-42" edge="1">
          <mxGeometry relative="1" as="geometry" />
        </mxCell>
        <mxCell id="fSKlPOmd9Wkej2sqSRBE-13" style="edgeStyle=orthogonalEdgeStyle;rounded=0;orthogonalLoop=1;jettySize=auto;html=1;exitX=0;exitY=0.25;exitDx=0;exitDy=0;" parent="WIyWlLk6GJQsqaUBKTNV-1" source="gxxZRGfVhdAJ79STQYsQ-74" target="gxxZRGfVhdAJ79STQYsQ-79" edge="1">
          <mxGeometry relative="1" as="geometry" />
        </mxCell>
        <mxCell id="fSKlPOmd9Wkej2sqSRBE-14" style="edgeStyle=orthogonalEdgeStyle;rounded=0;orthogonalLoop=1;jettySize=auto;html=1;exitX=0;exitY=0.5;exitDx=0;exitDy=0;" parent="WIyWlLk6GJQsqaUBKTNV-1" source="gxxZRGfVhdAJ79STQYsQ-74" target="jXXAGItoZEFWX7bIlFFn-44" edge="1">
          <mxGeometry relative="1" as="geometry" />
        </mxCell>
        <mxCell id="gxxZRGfVhdAJ79STQYsQ-74" value="TimDepositorController.java" style="rounded=0;whiteSpace=wrap;html=1;fillColor=#dae8fc;strokeColor=#6c8ebf;" parent="WIyWlLk6GJQsqaUBKTNV-1" vertex="1">
          <mxGeometry x="-832.5" y="-750" width="160" height="60" as="geometry" />
        </mxCell>
        <mxCell id="gxxZRGfVhdAJ79STQYsQ-79" value="J2735TimBroadcastJson" style="ellipse;whiteSpace=wrap;html=1;fillColor=#fff2cc;strokeColor=#d6b656;" parent="WIyWlLk6GJQsqaUBKTNV-1" vertex="1">
          <mxGeometry x="-1028.5" y="-850" width="140" height="80" as="geometry" />
        </mxCell>
        <mxCell id="gxxZRGfVhdAJ79STQYsQ-88" style="edgeStyle=orthogonalEdgeStyle;rounded=0;orthogonalLoop=1;jettySize=auto;html=1;entryX=0.5;entryY=0;entryDx=0;entryDy=0;exitX=0.5;exitY=1;exitDx=0;exitDy=0;" parent="WIyWlLk6GJQsqaUBKTNV-1" source="gxxZRGfVhdAJ79STQYsQ-85" target="gxxZRGfVhdAJ79STQYsQ-86" edge="1">
          <mxGeometry relative="1" as="geometry" />
        </mxCell>
        <mxCell id="gxxZRGfVhdAJ79STQYsQ-85" value="PPM (TIM)" style="shape=process;whiteSpace=wrap;html=1;backgroundOutline=1;fillColor=#d5e8d4;strokeColor=#82b366;" parent="WIyWlLk6GJQsqaUBKTNV-1" vertex="1">
          <mxGeometry x="-320" y="-163" width="120" height="60" as="geometry" />
        </mxCell>
        <mxCell id="gxxZRGfVhdAJ79STQYsQ-86" value="FilteredOdeTimJson" style="ellipse;whiteSpace=wrap;html=1;fillColor=#fff2cc;strokeColor=#d6b656;" parent="WIyWlLk6GJQsqaUBKTNV-1" vertex="1">
          <mxGeometry x="-320" y="-60" width="120" height="80" as="geometry" />
        </mxCell>
        <mxCell id="gxxZRGfVhdAJ79STQYsQ-114" style="edgeStyle=orthogonalEdgeStyle;rounded=0;orthogonalLoop=1;jettySize=auto;html=1;" parent="WIyWlLk6GJQsqaUBKTNV-1" source="gxxZRGfVhdAJ79STQYsQ-98" target="gxxZRGfVhdAJ79STQYsQ-100" edge="1">
          <mxGeometry relative="1" as="geometry" />
        </mxCell>
        <mxCell id="gxxZRGfVhdAJ79STQYsQ-98" value="Asn1EncoderInput" style="ellipse;whiteSpace=wrap;html=1;fillColor=#fff2cc;strokeColor=#d6b656;" parent="WIyWlLk6GJQsqaUBKTNV-1" vertex="1">
          <mxGeometry x="-812.5" y="-584" width="120" height="80" as="geometry" />
        </mxCell>
        <mxCell id="gxxZRGfVhdAJ79STQYsQ-115" style="edgeStyle=orthogonalEdgeStyle;rounded=0;orthogonalLoop=1;jettySize=auto;html=1;" parent="WIyWlLk6GJQsqaUBKTNV-1" source="gxxZRGfVhdAJ79STQYsQ-100" target="gxxZRGfVhdAJ79STQYsQ-102" edge="1">
          <mxGeometry relative="1" as="geometry" />
        </mxCell>
        <mxCell id="gxxZRGfVhdAJ79STQYsQ-100" value="ACM (AEM)" style="shape=process;whiteSpace=wrap;html=1;backgroundOutline=1;fillColor=#d5e8d4;strokeColor=#82b366;" parent="WIyWlLk6GJQsqaUBKTNV-1" vertex="1">
          <mxGeometry x="-812.5" y="-460" width="120" height="60" as="geometry" />
        </mxCell>
        <mxCell id="aqF8q1LMsJ_iSEX8ik-w-58" style="edgeStyle=orthogonalEdgeStyle;rounded=0;orthogonalLoop=1;jettySize=auto;html=1;" parent="WIyWlLk6GJQsqaUBKTNV-1" source="gxxZRGfVhdAJ79STQYsQ-102" edge="1">
          <mxGeometry relative="1" as="geometry">
            <mxPoint x="-752.5" y="-232.75" as="targetPoint" />
          </mxGeometry>
        </mxCell>
        <mxCell id="gxxZRGfVhdAJ79STQYsQ-102" value="Asn1EncoderOutput" style="ellipse;whiteSpace=wrap;html=1;fillColor=#fff2cc;strokeColor=#d6b656;" parent="WIyWlLk6GJQsqaUBKTNV-1" vertex="1">
          <mxGeometry x="-812.5" y="-350" width="120" height="80" as="geometry" />
        </mxCell>
        <mxCell id="jXXAGItoZEFWX7bIlFFn-42" value="OdeTimBroadcastPojo" style="ellipse;whiteSpace=wrap;html=1;fillColor=#fff2cc;strokeColor=#d6b656;" parent="WIyWlLk6GJQsqaUBKTNV-1" vertex="1">
          <mxGeometry x="-1023.5" y="-664" width="130" height="80" as="geometry" />
        </mxCell>
        <mxCell id="jXXAGItoZEFWX7bIlFFn-44" value="OdeTimBroadcastJson" style="ellipse;whiteSpace=wrap;html=1;fillColor=#fff2cc;strokeColor=#d6b656;" parent="WIyWlLk6GJQsqaUBKTNV-1" vertex="1">
          <mxGeometry x="-1165" y="-760" width="130" height="80" as="geometry" />
        </mxCell>
        <mxCell id="_VHhroGQ1N4wH_tI7Nl9-4" value="" style="group" parent="WIyWlLk6GJQsqaUBKTNV-1" vertex="1" connectable="0">
          <mxGeometry x="-135" y="-1060" width="300" height="600" as="geometry" />
        </mxCell>
        <mxCell id="_VHhroGQ1N4wH_tI7Nl9-5" value="&lt;font style=&quot;font-size: 24px&quot;&gt;Submodule&lt;/font&gt;" style="shape=process;whiteSpace=wrap;html=1;backgroundOutline=1;fillColor=#d5e8d4;strokeColor=#82b366;labelBackgroundColor=none;" parent="_VHhroGQ1N4wH_tI7Nl9-4" vertex="1">
          <mxGeometry x="56.25" y="336.5853658536585" width="180" height="87.80487804878048" as="geometry" />
        </mxCell>
        <mxCell id="_VHhroGQ1N4wH_tI7Nl9-6" value="Key" style="swimlane;labelBackgroundColor=none;fontSize=18;" parent="_VHhroGQ1N4wH_tI7Nl9-4" vertex="1">
          <mxGeometry width="299.99999999999994" height="600" as="geometry">
            <mxRectangle width="70" height="30" as="alternateBounds" />
          </mxGeometry>
        </mxCell>
        <mxCell id="_VHhroGQ1N4wH_tI7Nl9-7" value="&lt;font style=&quot;font-size: 24px&quot;&gt;Data Flow&lt;/font&gt;" style="text;html=1;strokeColor=none;fillColor=none;align=center;verticalAlign=middle;whiteSpace=wrap;rounded=0;labelBackgroundColor=none;" parent="_VHhroGQ1N4wH_tI7Nl9-6" vertex="1">
          <mxGeometry x="80" y="541.46" width="140" height="43.9" as="geometry" />
        </mxCell>
        <mxCell id="_VHhroGQ1N4wH_tI7Nl9-8" value="" style="endArrow=classic;html=1;rounded=0;labelBackgroundColor=none;" parent="_VHhroGQ1N4wH_tI7Nl9-6" edge="1">
          <mxGeometry width="50" height="50" relative="1" as="geometry">
            <mxPoint x="108.75" y="541.4634146341463" as="sourcePoint" />
            <mxPoint x="183.74999999999997" y="468.29268292682923" as="targetPoint" />
          </mxGeometry>
        </mxCell>
        <mxCell id="_VHhroGQ1N4wH_tI7Nl9-9" value="&lt;font style=&quot;font-size: 24px&quot;&gt;Kafka Topic&lt;/font&gt;" style="ellipse;whiteSpace=wrap;html=1;fillColor=#fff2cc;strokeColor=#d6b656;labelBackgroundColor=none;" parent="_VHhroGQ1N4wH_tI7Nl9-6" vertex="1">
          <mxGeometry x="56.25" y="175.60975609756096" width="180" height="117.07317073170731" as="geometry" />
        </mxCell>
        <mxCell id="_VHhroGQ1N4wH_tI7Nl9-10" value="&lt;font style=&quot;font-size: 24px&quot;&gt;ODE Java Class&lt;/font&gt;" style="rounded=1;whiteSpace=wrap;html=1;fillColor=#dae8fc;strokeColor=#6c8ebf;labelBackgroundColor=none;" parent="_VHhroGQ1N4wH_tI7Nl9-6" vertex="1">
          <mxGeometry x="48.13" y="58.54" width="196.25" height="87.8" as="geometry" />
        </mxCell>
        <mxCell id="oiuFg5Qo2Y_hmeBjECUk-0" value="message arrives &lt;br&gt;encoded with Asn1.c" style="text;html=1;align=center;verticalAlign=middle;resizable=0;points=[];autosize=1;strokeColor=none;fillColor=none;" parent="WIyWlLk6GJQsqaUBKTNV-1" vertex="1">
          <mxGeometry x="-277.5" y="-720" width="130" height="30" as="geometry" />
        </mxCell>
        <mxCell id="oiuFg5Qo2Y_hmeBjECUk-1" value="message is decoded from Asn1.c" style="text;html=1;strokeColor=none;fillColor=none;align=center;verticalAlign=middle;whiteSpace=wrap;rounded=0;" parent="WIyWlLk6GJQsqaUBKTNV-1" vertex="1">
          <mxGeometry x="-170" y="-360" width="110" height="50" as="geometry" />
        </mxCell>
        <mxCell id="oiuFg5Qo2Y_hmeBjECUk-2" value="message is filtered/redacted" style="text;html=1;strokeColor=none;fillColor=none;align=center;verticalAlign=middle;whiteSpace=wrap;rounded=0;" parent="WIyWlLk6GJQsqaUBKTNV-1" vertex="1">
          <mxGeometry x="-252.5" y="-240" width="105" height="50" as="geometry" />
        </mxCell>
        <mxCell id="oiuFg5Qo2Y_hmeBjECUk-4" value="message is encoded into Asn1.c" style="text;html=1;strokeColor=none;fillColor=none;align=center;verticalAlign=middle;whiteSpace=wrap;rounded=0;" parent="WIyWlLk6GJQsqaUBKTNV-1" vertex="1">
          <mxGeometry x="-922.5" y="-455" width="110" height="50" as="geometry" />
        </mxCell>
        <mxCell id="oiuFg5Qo2Y_hmeBjECUk-7" value="messages are in JSON format" style="text;html=1;strokeColor=none;fillColor=none;align=center;verticalAlign=middle;whiteSpace=wrap;rounded=0;" parent="WIyWlLk6GJQsqaUBKTNV-1" vertex="1">
          <mxGeometry x="-580" y="-192.75" width="105" height="50" as="geometry" />
        </mxCell>
        <mxCell id="oiuFg5Qo2Y_hmeBjECUk-8" value="messages are in JSON format" style="text;html=1;strokeColor=none;fillColor=none;align=center;verticalAlign=middle;whiteSpace=wrap;rounded=0;" parent="WIyWlLk6GJQsqaUBKTNV-1" vertex="1">
          <mxGeometry x="-157.5" y="-13" width="105" height="50" as="geometry" />
        </mxCell>
        <mxCell id="oiuFg5Qo2Y_hmeBjECUk-9" value="messages are in JSON format" style="text;html=1;strokeColor=none;fillColor=none;align=center;verticalAlign=middle;whiteSpace=wrap;rounded=0;" parent="WIyWlLk6GJQsqaUBKTNV-1" vertex="1">
          <mxGeometry x="-2.5" y="-13" width="105" height="50" as="geometry" />
        </mxCell>
        <mxCell id="oiuFg5Qo2Y_hmeBjECUk-11" value="messages are in JSON format" style="text;html=1;strokeColor=none;fillColor=none;align=center;verticalAlign=middle;whiteSpace=wrap;rounded=0;" parent="WIyWlLk6GJQsqaUBKTNV-1" vertex="1">
          <mxGeometry x="-1011" y="-900" width="105" height="50" as="geometry" />
        </mxCell>
        <mxCell id="oiuFg5Qo2Y_hmeBjECUk-12" value="messages are in JSON format" style="text;html=1;strokeColor=none;fillColor=none;align=center;verticalAlign=middle;whiteSpace=wrap;rounded=0;" parent="WIyWlLk6GJQsqaUBKTNV-1" vertex="1">
          <mxGeometry x="-1190" y="-810" width="105" height="50" as="geometry" />
        </mxCell>
        <mxCell id="oiuFg5Qo2Y_hmeBjECUk-13" value="messages are in POJO format" style="text;html=1;strokeColor=none;fillColor=none;align=center;verticalAlign=middle;whiteSpace=wrap;rounded=0;" parent="WIyWlLk6GJQsqaUBKTNV-1" vertex="1">
          <mxGeometry x="-1128.5" y="-649" width="105" height="50" as="geometry" />
        </mxCell>
        <mxCell id="oiuFg5Qo2Y_hmeBjECUk-14" value="messages are in JSON format and filtered" style="text;html=1;strokeColor=none;fillColor=none;align=center;verticalAlign=middle;whiteSpace=wrap;rounded=0;" parent="WIyWlLk6GJQsqaUBKTNV-1" vertex="1">
          <mxGeometry x="-312.5" y="20" width="105" height="50" as="geometry" />
        </mxCell>
        <mxCell id="bbxu_yWrm7AVVhjccTj6-7" style="rounded=0;orthogonalLoop=1;jettySize=auto;html=1;" parent="WIyWlLk6GJQsqaUBKTNV-1" source="bbxu_yWrm7AVVhjccTj6-6" target="gxxZRGfVhdAJ79STQYsQ-74" edge="1">
          <mxGeometry relative="1" as="geometry" />
        </mxCell>
        <mxCell id="eSCE5nDfyMYD5o9HO9Jg-7" style="rounded=0;orthogonalLoop=1;jettySize=auto;html=1;" parent="WIyWlLk6GJQsqaUBKTNV-1" source="bbxu_yWrm7AVVhjccTj6-6" target="eSCE5nDfyMYD5o9HO9Jg-3" edge="1">
          <mxGeometry relative="1" as="geometry" />
        </mxCell>
        <mxCell id="eSCE5nDfyMYD5o9HO9Jg-8" style="edgeStyle=none;rounded=0;orthogonalLoop=1;jettySize=auto;html=1;" parent="WIyWlLk6GJQsqaUBKTNV-1" source="bbxu_yWrm7AVVhjccTj6-6" target="gxxZRGfVhdAJ79STQYsQ-58" edge="1">
          <mxGeometry relative="1" as="geometry" />
        </mxCell>
        <mxCell id="bbxu_yWrm7AVVhjccTj6-6" value="" style="ellipse;shape=cloud;whiteSpace=wrap;html=1;" parent="WIyWlLk6GJQsqaUBKTNV-1" vertex="1">
          <mxGeometry x="-740" y="-1000" width="120" height="80" as="geometry" />
        </mxCell>
        <mxCell id="aqF8q1LMsJ_iSEX8ik-w-59" style="edgeStyle=orthogonalEdgeStyle;rounded=0;orthogonalLoop=1;jettySize=auto;html=1;entryX=0;entryY=0.5;entryDx=0;entryDy=0;" parent="WIyWlLk6GJQsqaUBKTNV-1" source="O9uA871KKQ0EQXezWnJV-13" target="gxxZRGfVhdAJ79STQYsQ-98" edge="1">
          <mxGeometry relative="1" as="geometry">
            <mxPoint x="-1070" y="-210" as="sourcePoint" />
            <Array as="points">
              <mxPoint x="-1095" y="-544" />
            </Array>
          </mxGeometry>
        </mxCell>
        <mxCell id="aaOsDOpcfkCGuR-wvzJf-3" style="edgeStyle=orthogonalEdgeStyle;rounded=0;orthogonalLoop=1;jettySize=auto;html=1;entryX=1;entryY=0.5;entryDx=0;entryDy=0;exitX=1;exitY=0.5;exitDx=0;exitDy=0;" parent="WIyWlLk6GJQsqaUBKTNV-1" source="aaOsDOpcfkCGuR-wvzJf-1" edge="1">
          <mxGeometry relative="1" as="geometry">
            <Array as="points">
              <mxPoint x="-630" y="160" />
              <mxPoint x="-630" y="25" />
            </Array>
            <mxPoint x="-692.5" y="24.5" as="targetPoint" />
          </mxGeometry>
        </mxCell>
        <mxCell id="eSCE5nDfyMYD5o9HO9Jg-0" style="rounded=0;orthogonalLoop=1;jettySize=auto;html=1;" parent="WIyWlLk6GJQsqaUBKTNV-1" source="eSCE5nDfyMYD5o9HO9Jg-1" target="eSCE5nDfyMYD5o9HO9Jg-6" edge="1">
          <mxGeometry relative="1" as="geometry" />
        </mxCell>
        <mxCell id="eSCE5nDfyMYD5o9HO9Jg-1" value="FileUploadController.java" style="rounded=0;whiteSpace=wrap;html=1;fillColor=#dae8fc;strokeColor=#6c8ebf;" parent="WIyWlLk6GJQsqaUBKTNV-1" vertex="1">
          <mxGeometry x="-630" y="-770" width="140" height="60" as="geometry" />
        </mxCell>
        <mxCell id="eSCE5nDfyMYD5o9HO9Jg-2" style="rounded=0;orthogonalLoop=1;jettySize=auto;html=1;" parent="WIyWlLk6GJQsqaUBKTNV-1" source="eSCE5nDfyMYD5o9HO9Jg-3" target="eSCE5nDfyMYD5o9HO9Jg-1" edge="1">
          <mxGeometry relative="1" as="geometry" />
        </mxCell>
        <mxCell id="eSCE5nDfyMYD5o9HO9Jg-3" value="offloaded files" style="shape=cube;whiteSpace=wrap;html=1;boundedLbl=1;backgroundOutline=1;darkOpacity=0.05;darkOpacity2=0.1;" parent="WIyWlLk6GJQsqaUBKTNV-1" vertex="1">
          <mxGeometry x="-620" y="-870" width="120" height="80" as="geometry" />
        </mxCell>
        <mxCell id="75-af1ib1f6XEc1HYEvR-1" value="" style="edgeStyle=orthogonalEdgeStyle;rounded=0;orthogonalLoop=1;jettySize=auto;html=1;" parent="WIyWlLk6GJQsqaUBKTNV-1" source="eSCE5nDfyMYD5o9HO9Jg-6" target="gxxZRGfVhdAJ79STQYsQ-60" edge="1">
          <mxGeometry relative="1" as="geometry" />
        </mxCell>
        <mxCell id="eSCE5nDfyMYD5o9HO9Jg-6" value="LogFileToAsn1CodecPublisher,java" style="rounded=0;whiteSpace=wrap;html=1;fillColor=#dae8fc;strokeColor=#6c8ebf;" parent="WIyWlLk6GJQsqaUBKTNV-1" vertex="1">
          <mxGeometry x="-667.5" y="-670" width="210" height="60" as="geometry" />
        </mxCell>
        <mxCell id="O9uA871KKQ0EQXezWnJV-0" style="edgeStyle=orthogonalEdgeStyle;rounded=0;orthogonalLoop=1;jettySize=auto;html=1;entryX=0.5;entryY=0;entryDx=0;entryDy=0;" edge="1" parent="WIyWlLk6GJQsqaUBKTNV-1" source="O9uA871KKQ0EQXezWnJV-1" target="O9uA871KKQ0EQXezWnJV-22">
          <mxGeometry relative="1" as="geometry" />
        </mxCell>
        <mxCell id="O9uA871KKQ0EQXezWnJV-1" value="Asn1CommandManager.java" style="rounded=0;whiteSpace=wrap;html=1;fillColor=#dae8fc;strokeColor=#6c8ebf;" vertex="1" parent="WIyWlLk6GJQsqaUBKTNV-1">
          <mxGeometry x="-842.5" y="-150" width="180" height="60" as="geometry" />
        </mxCell>
        <mxCell id="O9uA871KKQ0EQXezWnJV-2" style="edgeStyle=orthogonalEdgeStyle;rounded=0;orthogonalLoop=1;jettySize=auto;html=1;" edge="1" parent="WIyWlLk6GJQsqaUBKTNV-1" source="O9uA871KKQ0EQXezWnJV-3" target="O9uA871KKQ0EQXezWnJV-7">
          <mxGeometry relative="1" as="geometry" />
        </mxCell>
        <mxCell id="O9uA871KKQ0EQXezWnJV-3" value="SDWDepositorInput" style="ellipse;whiteSpace=wrap;html=1;fillColor=#fff2cc;strokeColor=#d6b656;" vertex="1" parent="WIyWlLk6GJQsqaUBKTNV-1">
          <mxGeometry x="-1160" y="-15" width="120" height="80" as="geometry" />
        </mxCell>
        <mxCell id="O9uA871KKQ0EQXezWnJV-4" style="edgeStyle=orthogonalEdgeStyle;rounded=0;orthogonalLoop=1;jettySize=auto;html=1;" edge="1" parent="WIyWlLk6GJQsqaUBKTNV-1" source="O9uA871KKQ0EQXezWnJV-5" target="O9uA871KKQ0EQXezWnJV-1">
          <mxGeometry relative="1" as="geometry" />
        </mxCell>
        <mxCell id="O9uA871KKQ0EQXezWnJV-5" value="Asn1EncodedDataRouter.java" style="rounded=0;whiteSpace=wrap;html=1;fillColor=#dae8fc;strokeColor=#6c8ebf;" vertex="1" parent="WIyWlLk6GJQsqaUBKTNV-1">
          <mxGeometry x="-837.5" y="-240" width="170" height="60" as="geometry" />
        </mxCell>
        <mxCell id="O9uA871KKQ0EQXezWnJV-6" style="edgeStyle=orthogonalEdgeStyle;rounded=0;orthogonalLoop=1;jettySize=auto;html=1;exitX=0.5;exitY=1;exitDx=0;exitDy=0;" edge="1" parent="WIyWlLk6GJQsqaUBKTNV-1" source="O9uA871KKQ0EQXezWnJV-7" target="O9uA871KKQ0EQXezWnJV-9">
          <mxGeometry relative="1" as="geometry" />
        </mxCell>
        <mxCell id="O9uA871KKQ0EQXezWnJV-7" value="SDWD" style="shape=process;whiteSpace=wrap;html=1;backgroundOutline=1;fillColor=#d5e8d4;strokeColor=#82b366;" vertex="1" parent="WIyWlLk6GJQsqaUBKTNV-1">
          <mxGeometry x="-1160" y="105" width="120" height="60" as="geometry" />
        </mxCell>
        <mxCell id="O9uA871KKQ0EQXezWnJV-8" value="RSUs" style="shape=trapezoid;perimeter=trapezoidPerimeter;whiteSpace=wrap;html=1;fixedSize=1;" vertex="1" parent="WIyWlLk6GJQsqaUBKTNV-1">
          <mxGeometry x="-1002.5" y="225" width="120" height="60" as="geometry" />
        </mxCell>
        <mxCell id="O9uA871KKQ0EQXezWnJV-9" value="SDX" style="shape=hexagon;perimeter=hexagonPerimeter2;whiteSpace=wrap;html=1;fixedSize=1;" vertex="1" parent="WIyWlLk6GJQsqaUBKTNV-1">
          <mxGeometry x="-1160" y="215" width="120" height="80" as="geometry" />
        </mxCell>
        <mxCell id="O9uA871KKQ0EQXezWnJV-10" style="edgeStyle=orthogonalEdgeStyle;rounded=0;orthogonalLoop=1;jettySize=auto;html=1;" edge="1" parent="WIyWlLk6GJQsqaUBKTNV-1" source="O9uA871KKQ0EQXezWnJV-11" target="O9uA871KKQ0EQXezWnJV-8">
          <mxGeometry relative="1" as="geometry" />
        </mxCell>
        <mxCell id="O9uA871KKQ0EQXezWnJV-11" value="RsuDepositor.java" style="rounded=0;whiteSpace=wrap;html=1;fillColor=#dae8fc;strokeColor=#6c8ebf;" vertex="1" parent="WIyWlLk6GJQsqaUBKTNV-1">
          <mxGeometry x="-1002.5" y="130.5" width="120" height="60" as="geometry" />
        </mxCell>
        <mxCell id="O9uA871KKQ0EQXezWnJV-12" style="edgeStyle=orthogonalEdgeStyle;rounded=0;orthogonalLoop=1;jettySize=auto;html=1;" edge="1" parent="WIyWlLk6GJQsqaUBKTNV-1" source="O9uA871KKQ0EQXezWnJV-13" target="O9uA871KKQ0EQXezWnJV-3">
          <mxGeometry relative="1" as="geometry" />
        </mxCell>
        <mxCell id="O9uA871KKQ0EQXezWnJV-13" value="Is message&lt;br&gt;double-encoded?" style="rhombus;whiteSpace=wrap;html=1;fillColor=#E5CCFF;" vertex="1" parent="WIyWlLk6GJQsqaUBKTNV-1">
          <mxGeometry x="-1160" y="-209.5" width="120" height="120.5" as="geometry" />
        </mxCell>
        <mxCell id="O9uA871KKQ0EQXezWnJV-14" style="edgeStyle=orthogonalEdgeStyle;rounded=0;orthogonalLoop=1;jettySize=auto;html=1;exitX=0.5;exitY=1;exitDx=0;exitDy=0;" edge="1" parent="WIyWlLk6GJQsqaUBKTNV-1" source="O9uA871KKQ0EQXezWnJV-15" target="O9uA871KKQ0EQXezWnJV-11">
          <mxGeometry relative="1" as="geometry" />
        </mxCell>
        <mxCell id="O9uA871KKQ0EQXezWnJV-15" value="RSU Delivery?" style="rhombus;whiteSpace=wrap;html=1;fillColor=#E5CCFF;" vertex="1" parent="WIyWlLk6GJQsqaUBKTNV-1">
          <mxGeometry x="-1002.5" y="-35.25" width="120" height="120.5" as="geometry" />
        </mxCell>
        <mxCell id="O9uA871KKQ0EQXezWnJV-16" value="yes" style="text;html=1;strokeColor=none;fillColor=none;align=center;verticalAlign=middle;whiteSpace=wrap;rounded=0;" vertex="1" parent="WIyWlLk6GJQsqaUBKTNV-1">
          <mxGeometry x="-957.5" y="85.25" width="60" height="30" as="geometry" />
        </mxCell>
        <mxCell id="O9uA871KKQ0EQXezWnJV-17" value="yes" style="text;html=1;strokeColor=none;fillColor=none;align=center;verticalAlign=middle;whiteSpace=wrap;rounded=0;" vertex="1" parent="WIyWlLk6GJQsqaUBKTNV-1">
          <mxGeometry x="-1110" y="-89" width="60" height="30" as="geometry" />
        </mxCell>
        <mxCell id="O9uA871KKQ0EQXezWnJV-18" value="no" style="text;html=1;strokeColor=none;fillColor=none;align=center;verticalAlign=middle;whiteSpace=wrap;rounded=0;" vertex="1" parent="WIyWlLk6GJQsqaUBKTNV-1">
          <mxGeometry x="-1110" y="-239.5" width="60" height="30" as="geometry" />
        </mxCell>
        <mxCell id="O9uA871KKQ0EQXezWnJV-19" style="edgeStyle=orthogonalEdgeStyle;rounded=0;orthogonalLoop=1;jettySize=auto;html=1;" edge="1" parent="WIyWlLk6GJQsqaUBKTNV-1" source="O9uA871KKQ0EQXezWnJV-22" target="O9uA871KKQ0EQXezWnJV-26">
          <mxGeometry relative="1" as="geometry" />
        </mxCell>
        <mxCell id="O9uA871KKQ0EQXezWnJV-20" style="rounded=0;orthogonalLoop=1;jettySize=auto;html=1;" edge="1" parent="WIyWlLk6GJQsqaUBKTNV-1" source="O9uA871KKQ0EQXezWnJV-22" target="O9uA871KKQ0EQXezWnJV-15">
          <mxGeometry relative="1" as="geometry" />
        </mxCell>
        <mxCell id="O9uA871KKQ0EQXezWnJV-21" style="rounded=0;orthogonalLoop=1;jettySize=auto;html=1;" edge="1" parent="WIyWlLk6GJQsqaUBKTNV-1" source="O9uA871KKQ0EQXezWnJV-22" target="O9uA871KKQ0EQXezWnJV-28">
          <mxGeometry relative="1" as="geometry" />
        </mxCell>
        <mxCell id="O9uA871KKQ0EQXezWnJV-22" value="Is message&lt;br&gt;signed?" style="rhombus;whiteSpace=wrap;html=1;fillColor=#E5CCFF;" vertex="1" parent="WIyWlLk6GJQsqaUBKTNV-1">
          <mxGeometry x="-812.5" y="-43" width="120" height="120.5" as="geometry" />
        </mxCell>
        <mxCell id="O9uA871KKQ0EQXezWnJV-23" value="yes" style="text;html=1;strokeColor=none;fillColor=none;align=center;verticalAlign=middle;whiteSpace=wrap;rounded=0;" vertex="1" parent="WIyWlLk6GJQsqaUBKTNV-1">
          <mxGeometry x="-837.5" y="-20" width="60" height="30" as="geometry" />
        </mxCell>
        <mxCell id="O9uA871KKQ0EQXezWnJV-24" value="no" style="text;html=1;strokeColor=none;fillColor=none;align=center;verticalAlign=middle;whiteSpace=wrap;rounded=0;" vertex="1" parent="WIyWlLk6GJQsqaUBKTNV-1">
          <mxGeometry x="-770" y="65" width="60" height="30" as="geometry" />
        </mxCell>
        <mxCell id="O9uA871KKQ0EQXezWnJV-25" style="edgeStyle=orthogonalEdgeStyle;rounded=0;orthogonalLoop=1;jettySize=auto;html=1;entryX=1;entryY=0.5;entryDx=0;entryDy=0;exitX=1;exitY=0.5;exitDx=0;exitDy=0;" edge="1" parent="WIyWlLk6GJQsqaUBKTNV-1" source="O9uA871KKQ0EQXezWnJV-26" target="O9uA871KKQ0EQXezWnJV-22">
          <mxGeometry relative="1" as="geometry">
            <Array as="points">
              <mxPoint x="-630" y="153" />
              <mxPoint x="-630" y="17" />
            </Array>
          </mxGeometry>
        </mxCell>
        <mxCell id="O9uA871KKQ0EQXezWnJV-26" value="SignatureController.java" style="rounded=0;whiteSpace=wrap;html=1;fillColor=#dae8fc;strokeColor=#6c8ebf;" vertex="1" parent="WIyWlLk6GJQsqaUBKTNV-1">
          <mxGeometry x="-822.5" y="122.75" width="140" height="60" as="geometry" />
        </mxCell>
        <mxCell id="O9uA871KKQ0EQXezWnJV-27" style="edgeStyle=orthogonalEdgeStyle;rounded=0;orthogonalLoop=1;jettySize=auto;html=1;" edge="1" parent="WIyWlLk6GJQsqaUBKTNV-1" source="O9uA871KKQ0EQXezWnJV-28" target="O9uA871KKQ0EQXezWnJV-13">
          <mxGeometry relative="1" as="geometry" />
        </mxCell>
        <mxCell id="O9uA871KKQ0EQXezWnJV-28" value="SDX Delivery?" style="rhombus;whiteSpace=wrap;html=1;fillColor=#E5CCFF;" vertex="1" parent="WIyWlLk6GJQsqaUBKTNV-1">
          <mxGeometry x="-1002.5" y="-209.5" width="120" height="120.5" as="geometry" />
        </mxCell>
        <mxCell id="O9uA871KKQ0EQXezWnJV-29" value="yes" style="text;html=1;strokeColor=none;fillColor=none;align=center;verticalAlign=middle;whiteSpace=wrap;rounded=0;" vertex="1" parent="WIyWlLk6GJQsqaUBKTNV-1">
          <mxGeometry x="-1040" y="-180" width="60" height="30" as="geometry" />
        </mxCell>
      </root>
    </mxGraphModel>
  </diagram>
</mxfile>
